<svg width="358" height="87" viewBox="0 0 358 87" fill="none" xmlns="http://www.w3.org/2000/svg">
<rect y="8" width="358" height="79" rx="16" fill="#1D663C"/>
<rect width="358" height="79" rx="16" fill="white"/>
<path d="M153 37.12C153.507 37.12 153.76 38.0533 153.76 39.92C153.76 40.48 153.693 41.1467 153.56 41.92C153.453 42.6667 153.24 43.04 152.92 43.04H147.84V47.04H155.2C155.653 47.04 155.96 47.6267 156.12 48.8C156.2 49.3067 156.24 49.8533 156.24 50.44C156.24 51 156.16 51.7333 156 52.64C155.84 53.5467 155.573 54 155.2 54H141.52C140.507 54 140 53.5867 140 52.76V27.04C140 26.3467 140.307 26 140.92 26H155.24C155.8 26 156.08 27.1867 156.08 29.56C156.08 31.9067 155.8 33.08 155.24 33.08H147.84V37.12H153ZM162.047 39.48C161.3 38.1467 160.927 37.0667 160.927 36.24C160.927 35.3867 161.153 34.84 161.607 34.6C163.127 33.9333 165.207 33.6 167.847 33.6C170.513 33.6 172.393 34.2267 173.487 35.48C174.58 36.7067 175.127 38.5333 175.127 40.96V47.28H176.487C176.94 47.28 177.287 47.5467 177.527 48.08C177.793 48.6133 177.927 49.3467 177.927 50.28C177.927 51.2133 177.687 52.1333 177.207 53.04C176.753 53.9467 176.127 54.4 175.327 54.4C173.887 54.4 172.727 54.0133 171.847 53.24C171.447 52.92 171.14 52.5333 170.927 52.08C169.7 53.6267 167.793 54.4 165.207 54.4C163.26 54.4 161.62 53.7067 160.287 52.32C158.953 50.9333 158.287 49.2933 158.287 47.4C158.287 43.0533 160.887 40.88 166.087 40.88H168.287V40.48C168.287 39.7867 168.167 39.3467 167.927 39.16C167.713 38.9467 167.193 38.84 166.367 38.84C165.353 38.84 163.913 39.0533 162.047 39.48ZM165.247 46.84C165.247 47.4267 165.407 47.88 165.727 48.2C166.047 48.4933 166.447 48.64 166.927 48.64C167.433 48.64 167.887 48.44 168.287 48.04V44.96H167.167C165.887 44.96 165.247 45.5867 165.247 46.84ZM181.031 46.8C183.191 48.1067 184.897 48.76 186.151 48.76C186.951 48.76 187.351 48.48 187.351 47.92C187.351 47.52 186.657 47 185.271 46.36C181.937 45 180.271 42.7733 180.271 39.68C180.271 37.7067 180.991 36.2 182.431 35.16C183.871 34.12 185.591 33.6 187.591 33.6C189.617 33.6 191.324 33.8133 192.711 34.24C194.124 34.6667 194.831 35.2267 194.831 35.92C194.831 36.5067 194.537 37.28 193.951 38.24C193.391 39.2 193.004 39.72 192.791 39.8C191.644 39.16 190.404 38.84 189.071 38.84C188.351 38.84 187.991 39.0933 187.991 39.6C187.991 39.92 188.124 40.2 188.391 40.44C188.684 40.6533 189.204 40.9333 189.951 41.28C190.697 41.6 191.311 41.8933 191.791 42.16C192.297 42.4267 192.857 42.8 193.471 43.28C194.751 44.2933 195.391 45.6133 195.391 47.24C195.391 49.3733 194.684 51.1067 193.271 52.44C191.857 53.7467 189.724 54.4 186.871 54.4C184.977 54.4 183.257 54.08 181.711 53.44C180.164 52.8 179.391 51.92 179.391 50.8C179.391 50.0533 179.564 49.2667 179.911 48.44C180.284 47.6133 180.657 47.0667 181.031 46.8ZM196.798 34.2C196.798 33.9067 198.012 33.76 200.438 33.76C202.892 33.76 204.158 33.8933 204.238 34.16L207.118 43.6L209.878 34.08C209.985 33.8667 210.812 33.76 212.358 33.76C215.905 33.76 217.598 33.9333 217.438 34.28L208.038 61.04C208.012 61.2 207.278 61.28 205.838 61.28C204.425 61.28 203.105 61.2267 201.878 61.12C200.652 61.04 200.065 60.9333 200.118 60.8L203.598 52.4L196.798 34.2Z" fill="#1D663C"/>
</svg>
