<svg width="358" height="87" viewBox="0 0 358 87" fill="none" xmlns="http://www.w3.org/2000/svg">
<rect y="8" width="358" height="79" rx="16" fill="#1D663C"/>
<rect width="358" height="79" rx="16" fill="white"/>
<path d="M157.76 53.32C157.76 53.7733 156.413 54 153.72 54C151.027 54 149.68 53.7733 149.68 53.32V44.12H144.08V53.32C144.08 53.7733 142.733 54 140.04 54C137.347 54 136 53.7733 136 53.32V26.8C136 26.24 137.347 25.96 140.04 25.96C142.733 25.96 144.08 26.24 144.08 26.8V36.2H149.68V26.88C149.68 26.5067 150.347 26.24 151.68 26.08C152.373 26.0267 153.053 26 153.72 26L155.76 26.08C157.093 26.24 157.76 26.5067 157.76 26.88V53.32ZM164.062 39.48C163.316 38.1467 162.942 37.0667 162.942 36.24C162.942 35.3867 163.169 34.84 163.622 34.6C165.142 33.9333 167.222 33.6 169.862 33.6C172.529 33.6 174.409 34.2267 175.502 35.48C176.596 36.7067 177.142 38.5333 177.142 40.96V47.28H178.502C178.956 47.28 179.302 47.5467 179.542 48.08C179.809 48.6133 179.942 49.3467 179.942 50.28C179.942 51.2133 179.702 52.1333 179.222 53.04C178.769 53.9467 178.142 54.4 177.342 54.4C175.902 54.4 174.742 54.0133 173.862 53.24C173.462 52.92 173.156 52.5333 172.942 52.08C171.716 53.6267 169.809 54.4 167.222 54.4C165.276 54.4 163.636 53.7067 162.302 52.32C160.969 50.9333 160.302 49.2933 160.302 47.4C160.302 43.0533 162.902 40.88 168.102 40.88H170.302V40.48C170.302 39.7867 170.182 39.3467 169.942 39.16C169.729 38.9467 169.209 38.84 168.382 38.84C167.369 38.84 165.929 39.0533 164.062 39.48ZM167.262 46.84C167.262 47.4267 167.422 47.88 167.742 48.2C168.062 48.4933 168.462 48.64 168.942 48.64C169.449 48.64 169.902 48.44 170.302 48.04V44.96H169.182C167.902 44.96 167.262 45.5867 167.262 46.84ZM190.966 53.96C190.966 54.1467 189.753 54.24 187.326 54.24C184.9 54.1867 183.686 54.08 183.686 53.92V40.64H182.606C182.18 40.64 181.833 40.3867 181.566 39.88C181.326 39.3467 181.206 38.6933 181.206 37.92C181.206 35.04 182.06 33.6 183.766 33.6C184.966 33.6 185.966 33.9733 186.766 34.72C187.566 35.44 187.966 36.2667 187.966 37.2C188.526 36.1067 189.273 35.24 190.206 34.6C191.166 33.9333 192.14 33.6 193.126 33.6C194.673 33.6 195.606 34 195.926 34.8C196.006 35.0133 196.046 35.3333 196.046 35.76C196.046 36.16 195.913 36.8933 195.646 37.96C195.406 39.0267 195.153 39.8 194.886 40.28C194.62 40.76 194.46 41 194.406 41C194.353 41 194.1 40.9067 193.646 40.72C193.22 40.5067 192.833 40.4 192.486 40.4C191.473 40.4 190.966 41.2 190.966 42.8V53.96ZM208.186 26.24C208.186 25.84 209.239 25.64 211.346 25.64C212.066 25.64 212.892 25.6933 213.826 25.8C214.786 25.88 215.266 26 215.266 26.16V47.24H216.666C217.332 47.24 217.772 47.84 217.986 49.04C218.039 49.3867 218.066 49.8667 218.066 50.48C218.066 51.0667 217.879 51.7867 217.506 52.64C216.972 53.8133 216.119 54.4 214.946 54.4C214.066 54.4 213.279 54.2267 212.586 53.88C211.919 53.5333 211.466 53.1733 211.226 52.8L210.866 52.28C209.399 53.6933 207.559 54.4 205.346 54.4C203.132 54.4 201.239 53.48 199.666 51.64C198.092 49.8 197.306 47.24 197.306 43.96C197.306 40.6533 198.132 38.1067 199.786 36.32C201.439 34.5067 203.506 33.6 205.986 33.6C206.706 33.6 207.439 33.68 208.186 33.84V26.24ZM206.866 40C205.372 40 204.626 41.3467 204.626 44.04C204.626 45.4 204.839 46.3867 205.266 47C205.692 47.5867 206.159 47.88 206.666 47.88C207.199 47.88 207.706 47.6533 208.186 47.2V40.4C207.732 40.1333 207.292 40 206.866 40Z" fill="#1D663C"/>
</svg>
