<svg width="122" height="32" viewBox="0 0 122 32" fill="none" xmlns="http://www.w3.org/2000/svg">
<g clip-path="url(#clip0_1510_10)">
<path d="M9.21754 17.0578C11.0098 16.8459 12.7757 16.3956 14.4443 15.7069L16.2102 17.6493C14.7181 18.2585 13.1465 18.6647 11.5484 18.8501V20.8631H16.272V23.2293H14.9476V31.5816H12.5373V23.2293H11.5396C11.5396 27.3613 10.586 29.807 8.60834 31.7405C7.99913 31.1313 7.29281 30.6192 6.52468 30.2308C8.64365 28.4649 9.21754 26.2135 9.21754 22.9115V17.0578ZM3.81416 19.115C3.99074 19.68 4.19381 20.2539 4.33507 20.8278H5.06788C5.32393 20.2716 5.54465 19.6977 5.72123 19.115H3.81416ZM3.50514 29.0123V28.4208C3.22261 28.6945 2.96657 28.977 2.62223 29.3037C3.19612 29.3037 3.50514 29.3037 3.50514 29.0477M7.03676 29.1183C6.6836 28.7475 6.29512 28.412 5.88899 28.1118V29.6922C5.88899 30.8488 5.35041 31.458 2.92242 31.6346C2.96657 30.9106 2.72818 30.2043 2.26024 29.6569C1.96005 29.8599 1.73933 30.0365 1.32436 30.3455C0.971197 29.648 0.529744 29.0123 0 28.4385C1.13012 27.7233 2.1278 26.8316 2.95774 25.7897H0.538573V23.7061H3.51397V23.0262H0.37965V20.8896H2.04834C1.96005 20.3775 1.7923 19.8743 1.54509 19.4152L2.15429 19.2209H0.520915V17.1461H3.68172C3.53163 16.7399 3.33739 16.3515 3.09017 15.9895L5.54465 15.6716C5.80069 16.1484 6.02142 16.6428 6.21566 17.1461H8.6878V19.2209H7.00145L8.07859 19.6712L7.43407 20.9338H8.90853V23.0704H5.8625V23.7502H8.66131V25.8339H6.41873C7.1692 26.2577 7.88435 26.7609 8.5377 27.326C7.89318 28.1118 7.42524 28.615 7.02794 29.1889" fill="#212121"/>
<path d="M31.0432 19.5652H29.0302V26.8845H31.0432V19.5652ZM33.3918 30.734H31.0432V29.2066H29.0302V30.7516H26.7346V17.3403H33.3918V30.734ZM23.8917 21.1103H22.585V22.6201L22.4084 24.6331C22.2583 26.1252 21.8433 27.582 21.1988 28.9417C21.7815 29.0476 22.3731 29.0741 22.9646 29.03C23.6268 29.03 23.6445 28.1471 23.6974 27.326L23.8917 24.0062V21.1103ZM26.2579 18.7618V23.7855L26.0725 27.3171C26.0548 28.3325 25.8959 29.3478 25.5957 30.319C24.7658 31.6964 23.0618 31.5374 21.605 31.4845C21.5343 30.8134 21.3136 30.1689 20.9604 29.595C20.572 30.3102 20.104 30.99 19.5743 31.6081C18.9916 30.9547 18.3294 30.3632 17.623 29.8422C18.2587 29.1094 18.7797 28.2883 19.1593 27.3966C19.9009 25.3747 20.2629 23.2293 20.2188 21.075H17.8349V18.7618H20.2188V16.5545C20.2188 16.2808 19.7244 16.2985 19.7773 15.963C19.7773 15.8305 19.9363 15.8129 20.0952 15.8129H22.6821V18.7618H26.2579Z" fill="#212121"/>
<path d="M45.7701 24.6154C45.9467 25.41 46.3087 26.1605 46.8296 26.7873L47.0856 26.4254C47.4653 25.8868 47.7125 25.2687 47.8184 24.6154H45.7701ZM45.0196 20.2009H43.3686V22.4699H45.0196V20.2009ZM43.3509 24.6154C43.3509 26.2841 43.0419 27.9351 42.468 29.4979C43.4215 29.2507 44.3221 28.8269 45.1167 28.2441C44.3133 27.1758 43.7835 25.9309 43.554 24.6154H43.3509ZM50.4142 23.3175C50.2994 24.686 49.9109 26.0104 49.2664 27.22C49.0633 27.582 48.8338 27.9263 48.5689 28.2441C49.5048 28.8887 50.5289 29.4184 51.5973 29.8069C50.9174 30.3631 50.3259 31.0165 49.8314 31.7405C48.7984 31.2637 47.8184 30.6721 46.9179 29.9746C45.982 30.6986 44.9578 31.3167 43.8718 31.8023C43.4569 31.0783 42.9713 30.3896 42.415 29.7627C42.0707 30.4426 41.6734 31.0959 41.2319 31.714C40.6934 31.0253 40.0047 30.4779 39.2189 30.0982C40.0842 29.2065 40.6669 28.0852 40.9053 26.8668L35.9698 28.5443L35.0869 26.0016L37.0116 25.6131V22.3463H35.3606V20.1656H37.0116V17.5875C36.9675 17.4903 36.9057 17.3932 36.8262 17.3138C36.7556 17.2255 36.8262 17.0842 36.9057 17.0842H39.3072V20.1832H40.817V22.3816H39.3072V25.1981L41.073 24.8008V17.9936H44.9931V16.2896C44.9401 16.1748 44.8695 16.0689 44.7901 15.9717C44.7547 15.9099 44.7724 15.8305 44.8342 15.7863C44.8519 15.7775 44.8695 15.7687 44.8872 15.7687H47.2887V17.9936H50.4318L51.5796 19.0354C51.2264 20.0243 50.6967 21.2074 50.2552 22.3022C49.6372 21.9402 48.9839 21.6223 48.3129 21.3575C48.4894 20.9955 48.6395 20.6247 48.7631 20.245H47.2887V22.4699H49.4077L50.4142 23.3175Z" fill="#212121"/>
<path d="M59.6406 16.6251C59.208 17.5345 58.7312 18.4174 58.2015 19.2739V20.8719C58.9078 20.6689 60.3734 20.1656 61.4682 19.7065V16.5987C61.4682 16.272 61.0444 16.3073 61.1504 16.0248L61.2916 15.8923H63.9845V18.285C64.735 17.7464 65.4413 17.1549 66.1035 16.5192L67.7545 18.1526C66.5979 19.2386 65.3354 20.2009 63.9845 21.0397V21.7813C63.9845 22.0197 64.1611 22.2228 64.3995 22.2404H65.8739C66.7568 22.2404 66.8628 20.6777 67.0923 19.5917C67.7457 20.0332 68.4432 20.3952 69.176 20.6777C68.6021 23.0969 68.3461 24.536 66.4831 24.536H63.1634C62.8809 24.5625 62.6072 24.483 62.3688 24.3329V25.5955H69.0347V27.944H62.3688V31.4756H59.8525V27.944H53.1954V25.5955H59.8525V24.8009C59.8525 24.43 59.3139 24.227 59.6759 24.068H62.0509C61.583 23.5736 61.3623 22.9026 61.4329 22.2316C60.7354 22.5671 60.0114 22.8673 59.2786 23.1145C58.9608 22.3994 58.6076 21.7019 58.2191 21.0309V24.5625H55.7117V21.437C55.3762 21.7637 54.9965 22.0374 54.5904 22.2669C54.2284 21.5253 53.7516 20.8366 53.1777 20.2362C54.97 19.0178 56.418 17.358 57.3804 15.4067L59.6406 16.6251Z" fill="#212121"/>
<path d="M7.59341 4.35273C7.41683 3.29324 6.44563 2.56043 5.37732 2.68404C4.48558 2.57809 3.66448 3.21378 3.55853 4.10552C3.55853 4.74121 3.95584 5.20915 4.87406 5.38573L6.63987 5.72124C9.17381 6.18918 10.4805 7.82255 10.4805 9.7208C10.4805 11.7956 8.7147 13.9234 5.57156 13.9234C1.88984 13.9234 0.274118 11.5396 0.124023 9.659L2.84338 9.00565C2.9405 10.3742 4.13242 11.3983 5.49209 11.3012C5.52741 11.3012 5.56273 11.3012 5.60687 11.2924C6.77231 11.2924 7.47863 10.7273 7.47863 9.90621C7.47863 9.22638 6.94006 8.74078 6.05716 8.57302L4.23837 8.23752C1.98696 7.8049 0.609622 6.30396 0.609622 4.33507C0.609622 1.81879 2.82572 0.0529785 5.37732 0.0529785C8.70587 0.0529785 9.9596 2.03952 10.2421 3.5846L7.59341 4.35273Z" fill="#212121"/>
<path d="M15.4511 0.335449H12.4492V13.6408H15.4511V0.335449Z" fill="#212121"/>
<path d="M26.2755 13.6408L20.8014 4.89125V13.6408H17.8525V0.335449H21.4548L26.452 8.42287V0.335449H29.4098V13.6408H26.2755Z" fill="#212121"/>
<path d="M41.9642 13.6409L41.7788 12.2901C40.8782 13.4114 39.4832 14.0206 38.0441 13.9234C34.3888 13.9941 31.3693 11.0805 31.2987 7.42525C31.2987 7.28398 31.2987 7.13389 31.2987 6.99262C31.1927 3.26676 34.1328 0.158927 37.8587 0.0529785C37.9823 0.0529785 38.0971 0.0529785 38.2207 0.0529785C42.0348 0.0529785 43.8006 2.30439 44.401 4.15849L41.5404 5.15618C41.1254 3.69938 39.7481 2.72819 38.2383 2.83413C35.9251 3.00189 34.1858 5.02374 34.3535 7.33696C34.5125 9.4471 36.2076 11.107 38.3178 11.2217C39.7922 11.3542 41.1519 10.4448 41.6022 9.04097H37.6026V6.52468H44.3745V13.6409H41.9554H41.9642Z" fill="#212121"/>
<path d="M50.8823 8.23746H54.1049L52.5156 3.63752L50.8823 8.23746ZM55.0496 10.9392H49.9022L48.9487 13.6408H45.832L50.8381 0.335449H54.2726L59.2345 13.6408H56.0031L55.0496 10.9392Z" fill="#212121"/>
<path d="M65.3437 6.3039C66.2796 6.41867 67.136 5.75649 67.2596 4.82061C67.3744 3.88473 66.7122 3.02831 65.7763 2.90471C65.6351 2.88705 65.4938 2.88705 65.3525 2.90471H63.6309V6.3039H65.3525H65.3437ZM63.5779 8.8555V13.6408H60.6113V0.335449H65.6174C68.3191 0.335449 70.182 2.10126 70.182 4.59106C70.182 7.08085 68.3191 8.8555 65.6174 8.8555H63.5779Z" fill="#212121"/>
<path d="M78.1723 10.9922C80.3973 11.0893 82.2779 9.36766 82.375 7.14274C82.4721 4.91781 80.7504 3.03722 78.5255 2.9401C76.3006 2.84298 74.42 4.56465 74.3229 6.78957C74.3229 6.85138 74.3229 6.91318 74.3229 6.97498C74.1728 9.04098 75.7355 10.8333 77.8015 10.9834C77.9251 10.9922 78.0487 10.9922 78.1723 10.9834M78.1723 0.0529973C82.0042 0.0441683 85.1208 3.14317 85.1296 6.97498C85.1385 10.8068 82.0395 13.9235 78.2077 13.9323C74.3758 13.9411 71.2592 10.8421 71.2503 7.0103V6.99264C71.1356 3.27561 74.0492 0.167775 77.7574 0.0529973C77.8986 0.0529973 78.0311 0.0529973 78.1723 0.0529973Z" fill="#212121"/>
<path d="M83.8761 31.3432V23.1498C85.9862 23.1763 88.0875 22.7966 90.0564 22.0285C91.575 21.4017 92.97 20.5099 94.1707 19.3798C95.654 18.0025 96.8283 16.3338 97.6229 14.4708C98.4264 12.5902 98.8413 10.5684 98.8325 8.52888V0H107.026V8.52888C107.026 11.6809 106.399 14.8063 105.154 17.7023C103.909 20.6159 102.064 23.2381 99.7419 25.3924C97.8171 27.1847 95.5834 28.615 93.1554 29.6215C90.1977 30.8134 87.0457 31.4138 83.8584 31.3873" fill="#EC2027"/>
<path d="M115.838 22.0285C114.31 21.4016 112.915 20.5099 111.714 19.3798C110.946 18.6646 110.258 17.87 109.666 17.0048C109.419 17.7641 109.136 18.5234 108.783 19.265C107.936 21.2515 106.841 23.1233 105.543 24.845L106.108 25.3924C108.033 27.1847 110.267 28.615 112.695 29.6215C115.652 30.8134 118.813 31.4138 122 31.3873V23.1939C119.89 23.2204 117.789 22.8408 115.82 22.0726" fill="#EC2027"/>
</g>
<defs>
<clipPath id="clip0_1510_10">
<rect width="122" height="31.8023" fill="white"/>
</clipPath>
</defs>
</svg>
