<svg width="739" height="392" viewBox="0 0 739 392" fill="none" xmlns="http://www.w3.org/2000/svg">
<path d="M368.282 2.56551L348.296 43.5175C347.708 44.4972 347.512 44.6952 346.336 44.8891L300.877 51.5511C298.722 51.7491 297.507 54.0592 299.702 56.2537C301.896 58.4483 322.3 78.3299 332.228 87.9964C333.012 88.7822 333.012 89.7619 332.816 90.9355L325.174 135.023C324.978 136.004 325.37 139.335 328.701 137.962C332.137 136.545 356.982 122.874 369.065 116.408C369.794 116.018 371.417 116.214 372.2 116.604C372.994 116.999 398.849 130.842 411.781 137.57C413.434 138.43 416.287 138.16 415.896 135.806C415.421 132.955 410.409 104.064 408.058 89.9558C407.91 89.0675 408.254 88.3903 409.429 87.0167C410.592 85.6588 431.571 65.5283 441.76 55.47C442.83 54.4136 443.523 51.945 439.605 51.3552C435.717 50.77 408.711 47.0444 395.713 45.085C394.734 44.8911 393.95 44.8911 392.97 43.5175C392.112 42.3135 378.928 15.6937 372.396 2.56551C371.613 0.991772 369.653 0.020331 368.282 2.56551Z" fill="white" stroke="black"/>
<path d="M184.042 59.1098L188.873 104.422C188.895 105.564 188.835 105.836 187.942 106.625L152.973 136.425C151.252 137.738 151.451 140.341 154.476 141.034C157.501 141.726 185.351 147.726 198.898 150.639C199.979 150.888 200.5 151.718 200.958 152.816L217.912 194.224C218.268 195.16 220.37 197.774 222.461 194.84C224.619 191.814 238.401 167.03 245.201 155.132C245.611 154.415 247.09 153.718 247.961 153.632C248.844 153.545 278.102 151.533 292.632 150.36C294.489 150.21 296.763 148.464 295.18 146.679C293.263 144.516 273.665 122.705 264.176 112.003C263.579 111.329 263.51 110.573 263.776 108.784C264.039 107.017 271.114 78.8152 274.4 64.8801C274.745 63.4166 274.021 60.957 270.388 62.5398C266.783 64.1099 241.926 75.3048 229.874 80.5518C228.942 80.9082 228.278 81.3247 226.718 80.6817C225.35 80.118 200.036 64.5737 187.527 56.9233C186.027 56.0067 183.851 56.225 184.042 59.1098Z" fill="white" stroke="black"/>
<path d="M53.8705 157.532L65.4461 201.606C65.6399 202.732 65.6205 203.01 64.8562 203.924L34.7549 238.634C33.2507 240.191 33.8375 242.734 36.9325 242.965C40.0274 243.196 68.4621 244.949 82.2926 245.796C83.3992 245.88 84.0385 246.623 84.6558 247.64L107.632 286.035C108.124 286.907 110.594 289.175 112.222 285.961C113.901 282.646 123.809 256.074 128.746 243.29C129.044 242.519 130.401 241.609 131.25 241.393C132.109 241.174 160.734 234.795 174.923 231.455C176.737 231.028 178.723 228.961 176.891 227.434C174.671 225.583 152.021 206.959 141.034 197.802C140.343 197.226 140.161 196.488 140.156 194.68C140.151 192.893 142.914 163.949 144.072 149.679C144.193 148.18 143.108 145.857 139.753 147.967C136.426 150.06 113.53 164.858 102.402 171.854C101.533 172.347 100.939 172.858 99.3003 172.456C97.864 172.104 70.504 160.534 56.9885 154.848C55.3677 154.166 53.249 154.709 53.8705 157.532Z" fill="white" stroke="black"/>
<path d="M553.139 60.4321L514.192 84.0881C513.168 84.5948 512.896 84.6554 511.802 84.1832L469.953 65.222C468.032 64.2237 465.762 65.5109 466.422 68.5434C467.083 71.5759 473.506 99.3309 476.635 112.829C476.87 113.914 476.341 114.738 475.542 115.62L445.286 148.585C444.591 149.305 443.121 152.32 446.666 152.964C450.322 153.629 478.615 155.553 492.276 156.642C493.1 156.708 494.359 157.75 494.808 158.501C495.262 159.263 509.535 184.883 516.78 197.532C517.706 199.149 520.253 200.464 521.195 198.272C522.337 195.616 533.734 168.599 539.379 155.458C539.735 154.63 540.39 154.246 542.122 153.726C543.833 153.212 572.364 147.612 586.373 144.655C587.844 144.344 589.762 142.642 586.783 140.028C583.828 137.435 563.119 119.705 553.242 111.033C552.522 110.34 551.863 109.916 551.781 108.231C551.709 106.754 555.002 77.2314 556.601 62.6558C556.792 60.9081 555.669 59.0318 553.139 60.4321Z" fill="white" stroke="black"/>
<path d="M682.784 154.119L641.118 172.571C640.037 172.941 639.76 172.967 638.736 172.358L599.672 148.173C597.896 146.936 595.479 147.92 595.744 151.012C596.009 154.105 598.81 182.455 600.178 196.244C600.271 197.35 599.64 198.099 598.734 198.871L564.491 227.672C563.709 228.297 561.863 231.097 565.296 232.192C568.837 233.321 596.647 238.867 610.055 241.704C610.863 241.875 611.978 243.071 612.327 243.874C612.68 244.687 623.539 271.93 629.098 285.406C629.808 287.128 632.165 288.76 633.381 286.707C634.855 284.22 649.631 258.892 656.919 246.587C657.378 245.812 658.078 245.515 659.862 245.222C661.625 244.932 690.639 243.047 704.912 241.916C706.411 241.797 708.532 240.356 705.914 237.38C703.317 234.428 685.059 214.183 676.379 204.313C675.755 203.533 675.155 203.028 675.291 201.347C675.409 199.873 682.471 171.018 685.931 156.769C686.346 155.061 685.472 153.056 682.784 154.119Z" fill="white" stroke="black"/>
<path d="M234.783 376.88C234.783 377.813 232.473 378.28 227.853 378.28C223.233 378.28 220.923 377.813 220.923 376.88V341.74H212.523C211.73 341.74 211.17 340.667 210.843 338.52C210.703 337.493 210.633 336.443 210.633 335.37C210.633 334.297 210.703 333.247 210.843 332.22C211.17 330.073 211.73 329 212.523 329H242.973C243.766 329 244.326 330.073 244.653 332.22C244.793 333.247 244.863 334.297 244.863 335.37C244.863 336.443 244.793 337.493 244.653 338.52C244.326 340.667 243.766 341.74 242.973 341.74H234.783V376.88ZM262.804 377.93C262.804 378.257 260.681 378.42 256.434 378.42C252.188 378.327 250.064 378.14 250.064 377.86V354.62H248.174C247.428 354.62 246.821 354.177 246.354 353.29C245.934 352.357 245.724 351.213 245.724 349.86C245.724 344.82 247.218 342.3 250.204 342.3C252.304 342.3 254.054 342.953 255.454 344.26C256.854 345.52 257.554 346.967 257.554 348.6C258.534 346.687 259.841 345.17 261.474 344.05C263.154 342.883 264.858 342.3 266.584 342.3C269.291 342.3 270.924 343 271.484 344.4C271.624 344.773 271.694 345.333 271.694 346.08C271.694 346.78 271.461 348.063 270.994 349.93C270.574 351.797 270.131 353.15 269.664 353.99C269.198 354.83 268.918 355.25 268.824 355.25C268.731 355.25 268.288 355.087 267.494 354.76C266.748 354.387 266.071 354.2 265.464 354.2C263.691 354.2 262.804 355.6 262.804 358.4V377.93ZM272.778 343.35C272.778 342.837 274.901 342.58 279.148 342.58C283.441 342.58 285.658 342.813 285.798 343.28L290.838 359.8L295.668 343.14C295.855 342.767 297.301 342.58 300.008 342.58C306.215 342.58 309.178 342.883 308.898 343.49L292.448 390.32C292.401 390.6 291.118 390.74 288.598 390.74C286.125 390.74 283.815 390.647 281.668 390.46C279.521 390.32 278.495 390.133 278.588 389.9L284.678 375.2L272.778 343.35ZM359.269 378.14C355.209 378.14 353.016 377.487 352.689 376.18L350.379 367.15H339.249L337.219 375.83C336.939 377.277 334.699 378 330.499 378C328.259 378 326.602 377.883 325.529 377.65C324.456 377.37 323.919 377.16 323.919 377.02L336.309 329.63C336.309 329.257 339.506 329.07 345.899 329.07C352.292 329.07 355.489 329.257 355.489 329.63L367.599 377.09C367.599 377.417 366.526 377.673 364.379 377.86C362.232 378.047 360.529 378.14 359.269 378.14ZM340.999 358.26H348.349L345.199 343.77H344.779L340.999 358.26ZM384.768 378C380.242 378 376.742 376.553 374.268 373.66C371.795 370.72 370.558 366.403 370.558 360.71C370.558 354.97 372.168 350.49 375.388 347.27C378.655 344.003 382.972 342.37 388.338 342.37C393.752 342.37 398.208 343.56 401.708 345.94V380.8C401.708 384.253 400.308 386.89 397.508 388.71C394.708 390.577 391.115 391.51 386.728 391.51C382.342 391.51 378.422 390.95 374.968 389.83C374.502 388.71 374.268 387.707 374.268 386.82C374.268 383.833 374.758 381.64 375.738 380.24C378.865 381.593 382.202 382.27 385.748 382.27C388.315 382.27 389.598 381.36 389.598 379.54V377.44C387.592 377.813 385.982 378 384.768 378ZM387.988 353.78C384.862 353.78 383.298 356.137 383.298 360.85C383.298 363.79 383.905 365.703 385.118 366.59C385.912 367.197 386.705 367.5 387.498 367.5C388.292 367.5 388.992 367.43 389.598 367.29V353.99C389.038 353.85 388.502 353.78 387.988 353.78ZM412.392 352.59C411.085 350.257 410.432 348.367 410.432 346.92C410.432 345.427 410.829 344.47 411.622 344.05C414.282 342.883 417.922 342.3 422.542 342.3C427.209 342.3 430.499 343.397 432.412 345.59C434.325 347.737 435.282 350.933 435.282 355.18V366.24H437.662C438.455 366.24 439.062 366.707 439.482 367.64C439.949 368.573 440.182 369.857 440.182 371.49C440.182 373.123 439.762 374.733 438.922 376.32C438.129 377.907 437.032 378.7 435.632 378.7C433.112 378.7 431.082 378.023 429.542 376.67C428.842 376.11 428.305 375.433 427.932 374.64C425.785 377.347 422.449 378.7 417.922 378.7C414.515 378.7 411.645 377.487 409.312 375.06C406.979 372.633 405.812 369.763 405.812 366.45C405.812 358.843 410.362 355.04 419.462 355.04H423.312V354.34C423.312 353.127 423.102 352.357 422.682 352.03C422.309 351.657 421.399 351.47 419.952 351.47C418.179 351.47 415.659 351.843 412.392 352.59ZM417.992 365.47C417.992 366.497 418.272 367.29 418.832 367.85C419.392 368.363 420.092 368.62 420.932 368.62C421.819 368.62 422.612 368.27 423.312 367.57V362.18H421.352C419.112 362.18 417.992 363.277 417.992 365.47ZM456.954 377.58C456.954 377.953 454.807 378.14 450.514 378.14C446.267 378.14 444.144 377.977 444.144 377.65V343.28C444.144 342.953 446.267 342.79 450.514 342.79C454.807 342.79 456.954 342.93 456.954 343.21V377.58ZM456.954 339.08C456.954 339.407 454.807 339.57 450.514 339.57C446.267 339.57 444.144 339.43 444.144 339.15V329.07C444.144 328.603 446.267 328.37 450.514 328.37C454.807 328.37 456.954 328.51 456.954 328.79V339.08ZM477.915 377.58C477.915 377.907 476.235 378.07 472.875 378.07C468.208 377.93 465.875 377.673 465.875 377.3V354.62H464.055C462.841 354.62 462.048 353.593 461.675 351.54C461.581 350.933 461.535 350.327 461.535 349.72C461.535 348.273 461.815 346.827 462.375 345.38C463.215 343.327 464.521 342.3 466.295 342.3C468.068 342.3 469.655 342.72 471.055 343.56C472.455 344.4 473.388 345.24 473.855 346.08C476.795 343.56 480.295 342.3 484.355 342.3C488.415 342.3 491.355 343.397 493.175 345.59C494.995 347.783 495.905 351.377 495.905 356.37V377.37C495.905 377.93 493.898 378.21 489.885 378.21C485.918 378.21 483.935 377.93 483.935 377.37V357.14C483.935 354.807 483.118 353.64 481.485 353.64C481.018 353.64 480.365 353.85 479.525 354.27C478.685 354.643 478.148 354.923 477.915 355.11V377.58ZM513.389 363.3C513.389 363.58 511.709 363.72 508.349 363.72C505.036 363.72 503.379 363.603 503.379 363.37L501.979 328.86C501.979 328.487 504.103 328.3 508.349 328.3C512.643 328.3 514.789 328.463 514.789 328.79L513.389 363.3ZM501.839 367.5C501.839 367.173 503.986 367.01 508.279 367.01C512.619 367.01 514.789 367.15 514.789 367.43V377.51C514.789 377.977 512.619 378.21 508.279 378.21C503.986 378.21 501.839 378.07 501.839 377.79V367.5Z" fill="white"/>
</svg>
