<svg width="365" height="87" viewBox="0 0 365 87" fill="none" xmlns="http://www.w3.org/2000/svg">
<rect y="8" width="365" height="79" rx="16" fill="white"/>
<rect width="365" height="79" rx="16" fill="#1D663C"/>
<path d="M144.578 32.468C144.578 34.4093 143.738 35.884 142.058 36.892C142.973 37.228 143.738 37.8067 144.354 38.628C144.97 39.4493 145.278 40.616 145.278 42.128C145.278 43.6213 144.718 44.8067 143.598 45.684C142.497 46.5613 140.91 47 138.838 47H132.23C131.913 47 131.652 46.8973 131.446 46.692C131.241 46.468 131.138 46.1787 131.138 45.824V27.904C131.138 27.6987 131.166 27.568 131.222 27.512C131.297 27.4373 131.437 27.4 131.642 27.4H138.026C142.394 27.4 144.578 29.0893 144.578 32.468ZM136.514 31.936V35.604H136.654C138.446 35.604 139.342 35.0067 139.342 33.812C139.342 33.1587 139.165 32.6827 138.81 32.384C138.474 32.0853 137.905 31.936 137.102 31.936H136.514ZM136.514 38.908V42.548H137.018C137.821 42.548 138.409 42.3987 138.782 42.1C139.156 41.8013 139.342 41.3253 139.342 40.672C139.342 40.0187 139.165 39.5613 138.81 39.3C138.474 39.0387 137.905 38.908 137.102 38.908H136.514ZM149.079 36.836C148.557 35.9027 148.295 35.1467 148.295 34.568C148.295 33.9707 148.454 33.588 148.771 33.42C149.835 32.9533 151.291 32.72 153.139 32.72C155.006 32.72 156.322 33.1587 157.087 34.036C157.853 34.8947 158.235 36.1733 158.235 37.872V42.296H159.187C159.505 42.296 159.747 42.4827 159.915 42.856C160.102 43.2293 160.195 43.7427 160.195 44.396C160.195 45.0493 160.027 45.6933 159.691 46.328C159.374 46.9627 158.935 47.28 158.375 47.28C157.367 47.28 156.555 47.0093 155.939 46.468C155.659 46.244 155.445 45.9733 155.295 45.656C154.437 46.7387 153.102 47.28 151.291 47.28C149.929 47.28 148.781 46.7947 147.847 45.824C146.914 44.8533 146.447 43.7053 146.447 42.38C146.447 39.3373 148.267 37.816 151.907 37.816H153.447V37.536C153.447 37.0507 153.363 36.7427 153.195 36.612C153.046 36.4627 152.682 36.388 152.103 36.388C151.394 36.388 150.386 36.5373 149.079 36.836ZM151.319 41.988C151.319 42.3987 151.431 42.716 151.655 42.94C151.879 43.1453 152.159 43.248 152.495 43.248C152.85 43.248 153.167 43.108 153.447 42.828V40.672H152.663C151.767 40.672 151.319 41.1107 151.319 41.988ZM166.372 40.056C166.372 41.8853 167.063 42.8 168.444 42.8C169.34 42.8 170.087 42.6227 170.684 42.268C170.964 42.268 171.188 42.7533 171.356 43.724C171.543 44.676 171.636 45.3293 171.636 45.684C171.636 46.02 171.59 46.244 171.496 46.356C170.507 46.972 169.154 47.28 167.436 47.28C165.719 47.28 164.254 46.6453 163.04 45.376C161.846 44.088 161.248 42.3427 161.248 40.14C161.248 37.9187 161.836 36.1267 163.012 34.764C164.207 33.4013 165.784 32.72 167.744 32.72C169.723 32.72 171.095 33.196 171.86 34.148C172.028 34.3533 172.112 34.6613 172.112 35.072C172.112 35.464 172.038 35.9493 171.888 36.528C171.552 37.7227 171.114 38.4133 170.572 38.6C170.498 38.6187 170.386 38.628 170.236 38.628C170.106 38.628 169.938 38.516 169.732 38.292C169.004 37.564 168.416 37.2 167.968 37.2C167.539 37.2 167.166 37.424 166.848 37.872C166.531 38.32 166.372 39.048 166.372 40.056ZM173.648 27.624C173.648 27.3253 174.497 27.176 176.196 27.176C177.782 27.232 178.576 27.3533 178.576 27.54V38.292L181.348 33.168C181.478 32.888 182.272 32.748 183.728 32.748C185.184 32.748 186.117 32.8413 186.528 33.028L182.888 38.964L187.088 46.832C187.125 46.9067 186.77 46.9627 186.024 47C185.296 47.056 184.689 47.084 184.204 47.084C182.412 47.084 181.45 47 181.32 46.832L178.548 40.616V46.804C178.548 47.0467 177.726 47.168 176.084 47.168C174.46 47.168 173.648 47.056 173.648 46.832V27.624ZM200.24 46.832C200.24 47.056 199.456 47.168 197.888 47.168C196.021 47.0933 195.088 46.972 195.088 46.804V36.892H193.66C193.287 36.892 193.1 36.248 193.1 34.96C193.1 34.624 193.128 34.2133 193.184 33.728C193.259 33.2427 193.399 33 193.604 33H195.088V30.536C195.088 30.1627 195.872 29.976 197.44 29.976C199.027 29.976 199.82 30.1253 199.82 30.424V32.216L199.848 33H202.228C202.545 33 202.704 33.6533 202.704 34.96C202.704 36.2667 202.545 36.92 202.228 36.92H200.24V46.832ZM205.312 45.348C204.155 44.06 203.576 42.2773 203.576 40C203.576 37.7227 204.155 35.94 205.312 34.652C206.488 33.364 208.066 32.72 210.044 32.72C212.023 32.72 213.591 33.364 214.748 34.652C215.906 35.94 216.484 37.7227 216.484 40C216.484 42.2773 215.906 44.06 214.748 45.348C213.591 46.636 212.023 47.28 210.044 47.28C208.066 47.28 206.488 46.636 205.312 45.348ZM210.044 37.396C208.999 37.396 208.476 38.2547 208.476 39.972C208.476 41.6893 208.999 42.548 210.044 42.548C211.108 42.548 211.64 41.6893 211.64 39.972C211.64 38.2547 211.108 37.396 210.044 37.396ZM228.417 46.804C228.417 46.972 227.633 47.056 226.065 47.056C224.516 47.056 223.741 46.9253 223.741 46.664V27.484C223.741 27.3533 224.031 27.26 224.609 27.204C225.188 27.148 225.673 27.12 226.065 27.12C227.633 27.12 228.417 27.288 228.417 27.624V33.224C229.463 32.9067 230.256 32.748 230.797 32.748C232.216 32.748 233.336 33.1307 234.157 33.896C234.979 34.6427 235.389 36.0427 235.389 38.096V46.776C235.389 46.944 234.661 47.028 233.205 47.028C231.563 46.972 230.741 46.8787 230.741 46.748V38.516C230.741 37.6013 230.443 37.144 229.845 37.144C229.435 37.144 228.959 37.34 228.417 37.732V46.804ZM238.973 45.348C237.815 44.06 237.237 42.2773 237.237 40C237.237 37.7227 237.815 35.94 238.973 34.652C240.149 33.364 241.726 32.72 243.705 32.72C245.683 32.72 247.251 33.364 248.409 34.652C249.566 35.94 250.145 37.7227 250.145 40C250.145 42.2773 249.566 44.06 248.409 45.348C247.251 46.636 245.683 47.28 243.705 47.28C241.726 47.28 240.149 46.636 238.973 45.348ZM243.705 37.396C242.659 37.396 242.137 38.2547 242.137 39.972C242.137 41.6893 242.659 42.548 243.705 42.548C244.769 42.548 245.301 41.6893 245.301 39.972C245.301 38.2547 244.769 37.396 243.705 37.396ZM264.808 46.86C264.808 46.9907 264.005 47.056 262.4 47.056C260.813 47.056 260.02 46.972 260.02 46.804V38.656C260.02 37.7227 259.712 37.256 259.096 37.256C258.779 37.256 258.359 37.4613 257.836 37.872V46.832C257.836 47.0187 257.033 47.112 255.428 47.112C253.841 47.112 253.048 47.0093 253.048 46.804V37.648H252.348C251.732 37.648 251.424 37.004 251.424 35.716C251.424 35.1373 251.536 34.5493 251.76 33.952C252.059 33.1307 252.544 32.72 253.216 32.72C253.888 32.72 254.532 32.8973 255.148 33.252C255.783 33.6067 256.165 33.9427 256.296 34.26C257.453 33.2333 258.732 32.72 260.132 32.72C261.551 32.72 262.689 33.1587 263.548 34.036C264.556 33.1587 265.769 32.72 267.188 32.72C270.268 32.72 271.808 34.596 271.808 38.348V46.86C271.808 46.9907 271.005 47.056 269.4 47.056C267.813 47.056 267.02 46.972 267.02 46.804V38.656C267.02 37.7227 266.712 37.256 266.096 37.256C265.76 37.256 265.331 37.4613 264.808 37.872V46.86ZM284.774 46.244C283.598 46.9347 282.086 47.28 280.238 47.28C278.39 47.28 276.832 46.6547 275.562 45.404C274.293 44.1347 273.658 42.3893 273.658 40.168C273.658 37.928 274.265 36.1267 275.478 34.764C276.71 33.4013 278.26 32.72 280.126 32.72C281.993 32.72 283.43 33.196 284.438 34.148C285.465 35.1 285.978 36.2573 285.978 37.62C285.978 40.644 284.242 42.156 280.77 42.156H278.838C278.838 42.716 278.988 43.108 279.286 43.332C279.604 43.5373 280.061 43.64 280.658 43.64C281.965 43.64 283.206 43.3413 284.382 42.744C284.401 42.7253 284.485 42.856 284.634 43.136C285.082 43.9387 285.306 44.62 285.306 45.18C285.306 45.7213 285.129 46.076 284.774 46.244ZM281.274 38.152C281.274 37.368 280.892 36.976 280.126 36.976C279.772 36.976 279.464 37.088 279.202 37.312C278.96 37.5173 278.838 37.8253 278.838 38.236V39.104H280.35C280.966 39.104 281.274 38.7867 281.274 38.152Z" fill="white"/>
<path d="M79.3976 38.1253H81.0544V49.5003C81.0544 51.2927 82.5405 52.7503 84.368 52.7503H104.249C106.077 52.7503 107.563 51.2927 107.563 49.5003V38.1253H109.22C109.547 38.1253 109.867 38.0299 110.14 37.8514C110.412 37.6728 110.625 37.419 110.75 37.1221C110.875 36.8253 110.908 36.4986 110.844 36.1834C110.78 35.8682 110.623 35.5787 110.391 35.3515L95.4799 20.7265C95.3262 20.5754 95.1436 20.4556 94.9426 20.3738C94.7416 20.2921 94.5262 20.25 94.3086 20.25C94.091 20.25 93.8756 20.2921 93.6746 20.3738C93.4736 20.4556 93.291 20.5754 93.1373 20.7265L78.2263 35.3515C77.9947 35.5787 77.8369 35.8682 77.773 36.1834C77.7091 36.4986 77.7419 36.8253 77.8673 37.1221C77.9927 37.419 78.205 37.6728 78.4774 37.8514C78.7498 38.0299 79.07 38.1253 79.3976 38.1253ZM90.995 49.5003V41.3753H97.6221V49.5003H90.995ZM94.3086 24.1731L104.249 33.9231V41.3753L104.251 49.5003H100.936V41.3753C100.936 39.583 99.4496 38.1253 97.6221 38.1253H90.995C89.1676 38.1253 87.6815 39.583 87.6815 41.3753V49.5003H84.368V33.9231L94.3086 24.1731Z" fill="white"/>
</svg>
