<svg width="358" height="87" viewBox="0 0 358 87" fill="none" xmlns="http://www.w3.org/2000/svg">
<rect y="8" width="358" height="79" rx="16" fill="#1D663C"/>
<rect width="358" height="79" rx="16" fill="white"/>
<path d="M139.92 53.12C139.92 53.68 138.667 53.96 136.16 53.96C133.653 53.96 132.293 53.76 132.08 53.36L125.4 40.88V53.32C125.4 53.8 124.16 54.04 121.68 54.04C119.227 54.04 118 53.8 118 53.32V26.56C118 26.16 119.053 25.96 121.16 25.96C121.987 25.96 122.947 26.04 124.04 26.2C125.16 26.3333 125.84 26.6 126.08 27L132.48 39.32V26.76C132.48 26.2533 133.72 26 136.2 26C138.68 26 139.92 26.2533 139.92 26.76V53.12ZM145.458 51.64C143.804 49.8 142.978 47.2533 142.978 44C142.978 40.7467 143.804 38.2 145.458 36.36C147.138 34.52 149.391 33.6 152.217 33.6C155.044 33.6 157.284 34.52 158.938 36.36C160.591 38.2 161.418 40.7467 161.418 44C161.418 47.2533 160.591 49.8 158.938 51.64C157.284 53.48 155.044 54.4 152.217 54.4C149.391 54.4 147.138 53.48 145.458 51.64ZM152.217 40.28C150.724 40.28 149.978 41.5067 149.978 43.96C149.978 46.4133 150.724 47.64 152.217 47.64C153.738 47.64 154.498 46.4133 154.498 43.96C154.498 41.5067 153.738 40.28 152.217 40.28ZM173.005 53.96C173.005 54.1467 171.792 54.24 169.365 54.24C166.939 54.1867 165.725 54.08 165.725 53.92V40.64H164.645C164.219 40.64 163.872 40.3867 163.605 39.88C163.365 39.3467 163.245 38.6933 163.245 37.92C163.245 35.04 164.099 33.6 165.805 33.6C167.005 33.6 168.005 33.9733 168.805 34.72C169.605 35.44 170.005 36.2667 170.005 37.2C170.565 36.1067 171.312 35.24 172.245 34.6C173.205 33.9333 174.179 33.6 175.165 33.6C176.712 33.6 177.645 34 177.965 34.8C178.045 35.0133 178.085 35.3333 178.085 35.76C178.085 36.16 177.952 36.8933 177.685 37.96C177.445 39.0267 177.192 39.8 176.925 40.28C176.659 40.76 176.499 41 176.445 41C176.392 41 176.139 40.9067 175.685 40.72C175.259 40.5067 174.872 40.4 174.525 40.4C173.512 40.4 173.005 41.2 173.005 42.8V53.96ZM198.225 53.8C198.225 53.9867 197.078 54.08 194.785 54.08C192.518 54.08 191.385 53.96 191.385 53.72V42.08C191.385 40.7467 190.945 40.08 190.065 40.08C189.611 40.08 189.011 40.3733 188.265 40.96V53.76C188.265 54.0267 187.118 54.16 184.825 54.16C182.558 54.16 181.425 54.0133 181.425 53.72V40.64H180.425C179.545 40.64 179.105 39.72 179.105 37.88C179.105 37.0533 179.265 36.2133 179.585 35.36C180.011 34.1867 180.705 33.6 181.665 33.6C182.625 33.6 183.545 33.8533 184.425 34.36C185.331 34.8667 185.878 35.3467 186.065 35.8C187.718 34.3333 189.545 33.6 191.545 33.6C193.571 33.6 195.198 34.2267 196.425 35.48C197.865 34.2267 199.598 33.6 201.625 33.6C206.025 33.6 208.225 36.28 208.225 41.64V53.8C208.225 53.9867 207.078 54.08 204.785 54.08C202.518 54.08 201.385 53.96 201.385 53.72V42.08C201.385 40.7467 200.945 40.08 200.065 40.08C199.585 40.08 198.971 40.3733 198.225 40.96V53.8ZM214.148 39.48C213.401 38.1467 213.028 37.0667 213.028 36.24C213.028 35.3867 213.255 34.84 213.708 34.6C215.228 33.9333 217.308 33.6 219.948 33.6C222.615 33.6 224.495 34.2267 225.588 35.48C226.681 36.7067 227.228 38.5333 227.228 40.96V47.28H228.588C229.041 47.28 229.388 47.5467 229.628 48.08C229.895 48.6133 230.028 49.3467 230.028 50.28C230.028 51.2133 229.788 52.1333 229.308 53.04C228.855 53.9467 228.228 54.4 227.428 54.4C225.988 54.4 224.828 54.0133 223.948 53.24C223.548 52.92 223.241 52.5333 223.028 52.08C221.801 53.6267 219.895 54.4 217.308 54.4C215.361 54.4 213.721 53.7067 212.388 52.32C211.055 50.9333 210.388 49.2933 210.388 47.4C210.388 43.0533 212.988 40.88 218.188 40.88H220.388V40.48C220.388 39.7867 220.268 39.3467 220.028 39.16C219.815 38.9467 219.295 38.84 218.468 38.84C217.455 38.84 216.015 39.0533 214.148 39.48ZM217.348 46.84C217.348 47.4267 217.508 47.88 217.828 48.2C218.148 48.4933 218.548 48.64 219.028 48.64C219.535 48.64 219.988 48.44 220.388 48.04V44.96H219.268C217.988 44.96 217.348 45.5867 217.348 46.84ZM239.572 53.68C239.572 53.92 238.212 54.04 235.492 54.04C233.359 54.0133 232.292 53.9067 232.292 53.72V26.48C232.292 26.08 233.586 25.88 236.172 25.88C238.439 25.96 239.572 26.0933 239.572 26.28V53.68Z" fill="#1D663C"/>
</svg>
