<svg width="462" height="64" viewBox="0 0 462 64" fill="none" xmlns="http://www.w3.org/2000/svg">
<path d="M49.1768 50.07C45.0234 50.07 42.9468 49.6033 42.9468 48.67L41.4768 20.6L32.9368 49.02C32.7501 49.58 31.1634 49.86 28.1768 49.86C25.1901 49.86 23.6501 49.6033 23.5568 49.09L14.7368 20.32L13.7568 48.25C13.7101 48.95 12.8234 49.44 11.0968 49.72C9.37009 49.9533 7.92343 50.07 6.75676 50.07C5.63676 50.07 4.54009 50 3.46676 49.86C1.22676 49.5333 0.130091 48.95 0.176758 48.11L1.78676 2.61C1.78676 1.49 4.63342 0.929998 10.3268 0.929998C12.0068 0.929998 14.0601 1.07 16.4868 1.35C18.9134 1.58333 20.2668 2.07333 20.5468 2.82L28.3868 24.87L35.2468 2.75C35.6668 1.53666 38.8868 0.929998 44.9068 0.929998C46.6334 0.929998 48.6868 1.07 51.0668 1.35C53.4934 1.58333 54.7068 2.02666 54.7068 2.68L56.7368 48.6C56.7368 49.1133 55.8268 49.4867 54.0068 49.72C52.1868 49.9533 50.5768 50.07 49.1768 50.07ZM67.7426 24.59C66.436 22.2567 65.7826 20.3667 65.7826 18.92C65.7826 17.4267 66.1793 16.47 66.9726 16.05C69.6326 14.8833 73.2726 14.3 77.8926 14.3C82.5593 14.3 85.8493 15.3967 87.7626 17.59C89.676 19.7367 90.6326 22.9333 90.6326 27.18V38.24H93.0126C93.806 38.24 94.4126 38.7067 94.8326 39.64C95.2993 40.5733 95.5326 41.8567 95.5326 43.49C95.5326 45.1233 95.1126 46.7333 94.2726 48.32C93.4793 49.9067 92.3826 50.7 90.9826 50.7C88.4626 50.7 86.4326 50.0233 84.8926 48.67C84.1926 48.11 83.656 47.4333 83.2826 46.64C81.136 49.3467 77.7993 50.7 73.2726 50.7C69.866 50.7 66.996 49.4867 64.6626 47.06C62.3293 44.6333 61.1626 41.7633 61.1626 38.45C61.1626 30.8433 65.7126 27.04 74.8126 27.04H78.6626V26.34C78.6626 25.1267 78.4526 24.3567 78.0326 24.03C77.6593 23.6567 76.7493 23.47 75.3026 23.47C73.5293 23.47 71.0093 23.8433 67.7426 24.59ZM73.3426 37.47C73.3426 38.4967 73.6226 39.29 74.1826 39.85C74.7426 40.3633 75.4426 40.62 76.2826 40.62C77.1693 40.62 77.9626 40.27 78.6626 39.57V34.18H76.7026C74.4626 34.18 73.3426 35.2767 73.3426 37.47ZM111.185 49.51C111.185 49.93 109.225 50.14 105.305 50.14C101.431 50.14 99.4947 49.8133 99.4947 49.16V1.21C99.4947 0.88333 100.218 0.649997 101.665 0.509999C103.111 0.369998 104.325 0.299997 105.305 0.299997C109.225 0.299997 111.185 0.719997 111.185 1.56V15.56C113.798 14.7667 115.781 14.37 117.135 14.37C120.681 14.37 123.481 15.3267 125.535 17.24C127.588 19.1067 128.615 22.6067 128.615 27.74V49.44C128.615 49.86 126.795 50.07 123.155 50.07C119.048 49.93 116.995 49.6967 116.995 49.37V28.79C116.995 26.5033 116.248 25.36 114.755 25.36C113.728 25.36 112.538 25.85 111.185 26.83V49.51ZM134.563 47.55V15.28C134.563 15 136.663 14.86 140.863 14.86C145.11 14.86 147.233 14.9767 147.233 15.21V52.52C147.233 55.9733 145.786 58.7033 142.893 60.71C140.046 62.7633 136.476 63.79 132.183 63.79C126.163 63.79 123.153 61.69 123.153 57.49C123.153 56.09 123.386 54.9233 123.853 53.99C124.273 54.0367 124.856 54.06 125.603 54.06C129.01 54.06 131.343 53.5233 132.603 52.45C133.91 51.3767 134.563 49.7433 134.563 47.55ZM134.563 11.15V1.07C134.563 0.60333 136.663 0.369996 140.863 0.369996C145.11 0.369996 147.233 0.509997 147.233 0.789999V11.08C147.233 11.4067 145.11 11.57 140.863 11.57C136.663 11.57 134.563 11.43 134.563 11.15ZM156.577 45.87C153.684 42.65 152.237 38.1933 152.237 32.5C152.237 26.8067 153.684 22.35 156.577 19.13C159.517 15.91 163.46 14.3 168.407 14.3C173.354 14.3 177.274 15.91 180.167 19.13C183.06 22.35 184.507 26.8067 184.507 32.5C184.507 38.1933 183.06 42.65 180.167 45.87C177.274 49.09 173.354 50.7 168.407 50.7C163.46 50.7 159.517 49.09 156.577 45.87ZM168.407 25.99C165.794 25.99 164.487 28.1367 164.487 32.43C164.487 36.7233 165.794 38.87 168.407 38.87C171.067 38.87 172.397 36.7233 172.397 32.43C172.397 28.1367 171.067 25.99 168.407 25.99ZM204.086 49.58C204.086 49.9067 202.406 50.07 199.046 50.07C194.379 49.93 192.046 49.6733 192.046 49.3V26.62H190.226C189.012 26.62 188.219 25.5933 187.846 23.54C187.752 22.9333 187.706 22.3267 187.706 21.72C187.706 20.2733 187.986 18.8267 188.546 17.38C189.386 15.3267 190.692 14.3 192.466 14.3C194.239 14.3 195.826 14.72 197.226 15.56C198.626 16.4 199.559 17.24 200.026 18.08C202.966 15.56 206.466 14.3 210.526 14.3C214.586 14.3 217.526 15.3967 219.346 17.59C221.166 19.7833 222.076 23.3767 222.076 28.37V49.37C222.076 49.93 220.069 50.21 216.056 50.21C212.089 50.21 210.106 49.93 210.106 49.37V29.14C210.106 26.8067 209.289 25.64 207.656 25.64C207.189 25.64 206.536 25.85 205.696 26.27C204.856 26.6433 204.319 26.9233 204.086 27.11V49.58ZM240.89 50C236.364 50 232.864 48.5533 230.39 45.66C227.917 42.72 226.68 38.4033 226.68 32.71C226.68 26.97 228.29 22.49 231.51 19.27C234.777 16.0033 239.094 14.37 244.46 14.37C249.874 14.37 254.33 15.56 257.83 17.94V52.8C257.83 56.2533 256.43 58.89 253.63 60.71C250.83 62.5767 247.237 63.51 242.85 63.51C238.464 63.51 234.544 62.95 231.09 61.83C230.624 60.71 230.39 59.7067 230.39 58.82C230.39 55.8333 230.88 53.64 231.86 52.24C234.987 53.5933 238.324 54.27 241.87 54.27C244.437 54.27 245.72 53.36 245.72 51.54V49.44C243.714 49.8133 242.104 50 240.89 50ZM244.11 25.78C240.984 25.78 239.42 28.1367 239.42 32.85C239.42 35.79 240.027 37.7033 241.24 38.59C242.034 39.1967 242.827 39.5 243.62 39.5C244.414 39.5 245.114 39.43 245.72 39.29V25.99C245.16 25.85 244.624 25.78 244.11 25.78ZM326.647 50.07C322.494 50.07 320.417 49.6033 320.417 48.67L318.947 20.6L310.407 49.02C310.221 49.58 308.634 49.86 305.647 49.86C302.661 49.86 301.121 49.6033 301.027 49.09L292.207 20.32L291.227 48.25C291.181 48.95 290.294 49.44 288.567 49.72C286.841 49.9533 285.394 50.07 284.227 50.07C283.107 50.07 282.011 50 280.937 49.86C278.697 49.5333 277.601 48.95 277.647 48.11L279.257 2.61C279.257 1.49 282.104 0.929998 287.797 0.929998C289.477 0.929998 291.531 1.07 293.957 1.35C296.384 1.58333 297.737 2.07333 298.017 2.82L305.857 24.87L312.717 2.75C313.137 1.53666 316.357 0.929998 322.377 0.929998C324.104 0.929998 326.157 1.07 328.537 1.35C330.964 1.58333 332.177 2.02666 332.177 2.68L334.207 48.6C334.207 49.1133 333.297 49.4867 331.477 49.72C329.657 49.9533 328.047 50.07 326.647 50.07ZM345.213 24.59C343.907 22.2567 343.253 20.3667 343.253 18.92C343.253 17.4267 343.65 16.47 344.443 16.05C347.103 14.8833 350.743 14.3 355.363 14.3C360.03 14.3 363.32 15.3967 365.233 17.59C367.147 19.7367 368.103 22.9333 368.103 27.18V38.24H370.483C371.277 38.24 371.883 38.7067 372.303 39.64C372.77 40.5733 373.003 41.8567 373.003 43.49C373.003 45.1233 372.583 46.7333 371.743 48.32C370.95 49.9067 369.853 50.7 368.453 50.7C365.933 50.7 363.903 50.0233 362.363 48.67C361.663 48.11 361.127 47.4333 360.753 46.64C358.607 49.3467 355.27 50.7 350.743 50.7C347.337 50.7 344.467 49.4867 342.133 47.06C339.8 44.6333 338.633 41.7633 338.633 38.45C338.633 30.8433 343.183 27.04 352.283 27.04H356.133V26.34C356.133 25.1267 355.923 24.3567 355.503 24.03C355.13 23.6567 354.22 23.47 352.773 23.47C351 23.47 348.48 23.8433 345.213 24.59ZM350.813 37.47C350.813 38.4967 351.093 39.29 351.653 39.85C352.213 40.3633 352.913 40.62 353.753 40.62C354.64 40.62 355.433 40.27 356.133 39.57V34.18H354.173C351.933 34.18 350.813 35.2767 350.813 37.47ZM393.065 49.58C393.065 50.14 391.105 50.42 387.185 50.42C382.519 50.2333 380.185 49.93 380.185 49.51V24.73H376.615C375.682 24.73 375.215 23.12 375.215 19.9C375.215 19.06 375.285 18.0333 375.425 16.82C375.612 15.6067 375.962 15 376.475 15H380.185V8.84C380.185 7.90666 382.145 7.44 386.065 7.44C390.032 7.44 392.015 7.81333 392.015 8.56V13.04L392.085 15H398.035C398.829 15 399.225 16.6333 399.225 19.9C399.225 23.1667 398.829 24.8 398.035 24.8H393.065V49.58ZM414.217 32.64C414.217 37.2133 415.944 39.5 419.397 39.5C421.637 39.5 423.504 39.0567 424.997 38.17C425.697 38.17 426.257 39.3833 426.677 41.81C427.144 44.19 427.377 45.8233 427.377 46.71C427.377 47.55 427.26 48.11 427.027 48.39C424.554 49.93 421.17 50.7 416.877 50.7C412.584 50.7 408.92 49.1133 405.887 45.94C402.9 42.72 401.407 38.3567 401.407 32.85C401.407 27.2967 402.877 22.8167 405.817 19.41C408.804 16.0033 412.747 14.3 417.647 14.3C422.594 14.3 426.024 15.49 427.937 17.87C428.357 18.3833 428.567 19.1533 428.567 20.18C428.567 21.16 428.38 22.3733 428.007 23.82C427.167 26.8067 426.07 28.5333 424.717 29C424.53 29.0467 424.25 29.07 423.877 29.07C423.55 29.07 423.13 28.79 422.617 28.23C420.797 26.41 419.327 25.5 418.207 25.5C417.134 25.5 416.2 26.06 415.407 27.18C414.614 28.3 414.217 30.12 414.217 32.64ZM444.095 49.51C444.095 49.93 442.135 50.14 438.215 50.14C434.342 50.14 432.405 49.8133 432.405 49.16V1.21C432.405 0.88333 433.128 0.649997 434.575 0.509999C436.022 0.369998 437.235 0.299997 438.215 0.299997C442.135 0.299997 444.095 0.719997 444.095 1.56V15.56C446.708 14.7667 448.692 14.37 450.045 14.37C453.592 14.37 456.392 15.3267 458.445 17.24C460.498 19.1067 461.525 22.6067 461.525 27.74V49.44C461.525 49.86 459.705 50.07 456.065 50.07C451.958 49.93 449.905 49.6967 449.905 49.37V28.79C449.905 26.5033 449.158 25.36 447.665 25.36C446.638 25.36 445.448 25.85 444.095 26.83V49.51Z" fill="white"/>
</svg>
