<svg width="741" height="390" viewBox="0 0 741 390" fill="none" xmlns="http://www.w3.org/2000/svg">
<path d="M368.282 2.56551L348.296 43.5175C347.708 44.4972 347.512 44.6952 346.336 44.8891L300.877 51.5511C298.722 51.7491 297.507 54.0592 299.702 56.2537C301.896 58.4483 322.3 78.3299 332.228 87.9964C333.012 88.7822 333.012 89.7619 332.816 90.9355L325.174 135.023C324.978 136.004 325.37 139.335 328.701 137.962C332.137 136.545 356.982 122.874 369.065 116.408C369.794 116.018 371.417 116.214 372.2 116.604C372.994 116.999 398.849 130.842 411.781 137.57C413.434 138.43 416.287 138.16 415.896 135.806C415.421 132.955 410.409 104.064 408.058 89.9558C407.91 89.0675 408.254 88.3903 409.429 87.0167C410.592 85.6588 431.571 65.5283 441.76 55.47C442.83 54.4136 443.523 51.945 439.605 51.3552C435.717 50.77 408.711 47.0444 395.713 45.085C394.734 44.8911 393.95 44.8911 392.97 43.5175C392.112 42.3135 378.928 15.6937 372.396 2.56551C371.613 0.991772 369.653 0.020331 368.282 2.56551Z" fill="#FFCF00" stroke="black"/>
<g opacity="0.9">
<path d="M369.863 12.9492L352.033 47.2391C350.857 49.1986 350.857 49.9823 346.742 50.5702C342.86 51.1248 319.376 52.8562 308.142 53.9012L346.742 55.4687C349.29 55.4687 354.423 55.4295 356.147 50.5702C357.872 45.7108 366.01 23.4648 369.863 12.9492Z" fill="#FFDF53"/>
<path d="M425.315 49.5121C409.836 82.0385 360.654 122.873 326.364 130.123L325.385 135.413C325.385 136.785 326.129 139.215 329.107 137.96C332.243 136.393 356.931 123.069 368.884 116.603C369.472 116.285 370.922 115.701 372.803 116.799L411.991 137.569C413.559 138.352 416.576 138.156 416.106 135.805L408.072 89.9546C407.876 89.1708 408.464 87.9952 408.856 87.6621C411.011 84.8601 437.855 59.5835 442.166 54.9201C442.715 54.0971 443.342 52.3336 440.207 51.5891C437.072 51.158 429.038 49.9823 425.315 49.5121Z" fill="#FFBF0E"/>
</g>
<path d="M184.042 59.1098L188.873 104.422C188.895 105.564 188.835 105.836 187.942 106.625L152.973 136.425C151.252 137.738 151.451 140.341 154.476 141.034C157.501 141.726 185.351 147.726 198.898 150.639C199.979 150.888 200.5 151.718 200.958 152.816L217.912 194.224C218.268 195.16 220.37 197.774 222.461 194.84C224.619 191.814 238.401 167.03 245.201 155.132C245.611 154.415 247.09 153.718 247.961 153.632C248.844 153.545 278.102 151.533 292.632 150.36C294.489 150.21 296.763 148.464 295.18 146.679C293.263 144.516 273.665 122.705 264.176 112.003C263.579 111.329 263.51 110.573 263.776 108.784C264.039 107.017 271.114 78.8152 274.4 64.8801C274.745 63.4166 274.021 60.957 270.388 62.5398C266.783 64.1099 241.926 75.3048 229.874 80.5518C228.942 80.9082 228.278 81.3247 226.718 80.6817C225.35 80.118 200.036 64.5737 187.527 56.9233C186.027 56.0067 183.851 56.225 184.042 59.1098Z" fill="#FFCF00" stroke="black"/>
<g opacity="0.9">
<path d="M190.902 67.0644L194.019 105.587C194.064 107.872 194.481 108.536 191.307 111.22C188.313 113.754 169.339 127.7 160.378 134.555L193.91 115.37C196.068 114.017 200.396 111.255 199.275 106.223C198.153 101.19 193.226 78.0201 190.902 67.0644Z" fill="#FFDF53"/>
<path d="M257.306 68.5706C261.477 104.35 241.514 165.077 216.319 189.44L218.3 194.442C219.029 195.604 220.951 197.267 222.808 194.622C224.63 191.628 238.464 167.221 245.154 155.392C245.483 154.81 246.401 153.546 248.577 153.476L292.812 150.246C294.556 150.077 297.008 148.307 295.361 146.565L264.19 111.993C263.608 111.433 263.481 110.125 263.636 109.635C263.973 106.116 273.281 70.4384 274.455 64.1972C274.482 63.2085 274.076 61.3815 271.025 62.4167C268.14 63.7175 260.71 66.9906 257.306 68.5706Z" fill="#FFBF0E"/>
</g>
<path d="M53.8705 157.532L65.4461 201.606C65.6399 202.732 65.6205 203.01 64.8562 203.924L34.7549 238.634C33.2507 240.191 33.8375 242.734 36.9325 242.965C40.0274 243.196 68.4621 244.949 82.2926 245.796C83.3992 245.88 84.0385 246.623 84.6558 247.64L107.632 286.035C108.124 286.907 110.594 289.175 112.222 285.961C113.901 282.646 123.809 256.074 128.746 243.29C129.044 242.519 130.401 241.609 131.25 241.393C132.109 241.174 160.734 234.795 174.923 231.455C176.737 231.028 178.723 228.961 176.891 227.434C174.671 225.583 152.021 206.959 141.034 197.802C140.343 197.226 140.161 196.488 140.156 194.68C140.151 192.893 142.914 163.949 144.072 149.679C144.193 148.18 143.108 145.857 139.753 147.967C136.426 150.06 113.53 164.858 102.402 171.854C101.533 172.347 100.939 172.858 99.3003 172.456C97.864 172.104 70.504 160.534 56.9885 154.848C55.3677 154.166 53.249 154.709 53.8705 157.532Z" fill="#FFCF00" stroke="black"/>
<g opacity="0.9">
<path d="M61.8466 164.371L70.7086 201.99C71.0962 204.242 71.6076 204.836 68.873 207.967C66.2927 210.92 49.6264 227.556 41.7952 235.678L72.0693 211.679C73.9996 210.017 77.8643 206.637 76.0002 201.83C74.1362 197.022 65.7878 174.854 61.8466 164.371Z" fill="#FFDF53"/>
<path d="M127.725 155.896C137.218 190.645 126.593 253.68 105.338 281.548L108.048 286.196C108.943 287.235 111.093 288.591 112.531 285.697C113.884 282.464 123.899 256.257 128.738 243.558C128.976 242.934 129.694 241.546 131.835 241.15L175.084 231.319C176.783 230.89 178.942 228.773 177.052 227.298L141.047 197.794C140.387 197.328 140.065 196.054 140.145 195.546C139.95 192.016 143.799 155.346 144.023 148.999C143.902 148.018 143.226 146.272 140.365 147.754C137.708 149.473 130.853 153.824 127.725 155.896Z" fill="#FFBF0E"/>
</g>
<path d="M553.139 60.4321L514.192 84.0881C513.168 84.5948 512.896 84.6554 511.802 84.1832L469.953 65.222C468.032 64.2237 465.762 65.5109 466.422 68.5434C467.083 71.5759 473.506 99.3309 476.635 112.829C476.87 113.914 476.341 114.738 475.542 115.62L445.286 148.585C444.591 149.305 443.121 152.32 446.666 152.964C450.322 153.629 478.615 155.553 492.276 156.642C493.1 156.708 494.359 157.75 494.808 158.501C495.262 159.263 509.535 184.883 516.78 197.532C517.706 199.149 520.253 200.464 521.195 198.272C522.337 195.616 533.734 168.599 539.379 155.458C539.735 154.63 540.39 154.246 542.122 153.726C543.833 153.212 572.364 147.612 586.373 144.655C587.844 144.344 589.762 142.642 586.783 140.028C583.828 137.435 563.119 119.705 553.242 111.033C552.522 110.34 551.863 109.916 551.781 108.231C551.709 106.754 555.002 77.2314 556.601 62.6558C556.792 60.9081 555.669 59.0318 553.139 60.4321Z" fill="#FFCF00" stroke="black"/>
<g opacity="0.9">
<path d="M548.857 70.0275L515.324 89.2429C513.276 90.2562 512.852 90.9156 509.072 89.1865C505.506 87.555 484.811 76.3205 474.794 71.1287L506.425 93.3081C508.568 94.6847 512.909 97.4261 516.986 94.2693C521.063 91.1125 539.932 76.7928 548.857 70.0275Z" fill="#FFDF53"/>
<path d="M575.755 130.758C545.153 149.761 481.704 157.54 448.934 145.109L445.251 149.031C444.51 150.185 443.823 152.632 447.007 153.186C450.492 153.562 478.466 155.693 492.017 156.712C492.683 156.762 494.218 157.055 495.208 158.994L516.957 197.648C517.852 199.155 520.497 200.621 521.372 198.388L539.391 155.468C539.65 154.703 540.78 154.031 541.289 153.963C544.617 152.77 580.864 146.01 587.011 144.415C587.917 144.019 589.398 142.875 587.162 140.554C584.757 138.497 578.633 133.166 575.755 130.758Z" fill="#FFBF0E"/>
</g>
<path d="M682.784 154.119L641.118 172.571C640.037 172.941 639.76 172.967 638.736 172.358L599.672 148.173C597.896 146.936 595.479 147.92 595.744 151.012C596.009 154.105 598.81 182.455 600.178 196.244C600.271 197.35 599.64 198.099 598.734 198.871L564.491 227.672C563.709 228.297 561.863 231.097 565.296 232.192C568.837 233.321 596.647 238.867 610.055 241.704C610.863 241.875 611.978 243.071 612.327 243.874C612.68 244.687 623.539 271.93 629.098 285.406C629.808 287.128 632.165 288.76 633.381 286.707C634.855 284.22 649.631 258.892 656.919 246.587C657.378 245.812 658.078 245.515 659.862 245.222C661.625 244.932 690.639 243.047 704.912 241.916C706.411 241.797 708.532 240.356 705.914 237.38C703.317 234.428 685.059 214.183 676.379 204.313C675.755 203.533 675.155 203.028 675.291 201.347C675.409 199.873 682.471 171.018 685.931 156.769C686.346 155.061 685.472 153.056 682.784 154.119Z" fill="#FFCF00" stroke="black"/>
<g opacity="0.9">
<path d="M677.303 163.085L641.577 177.829C639.416 178.57 638.911 179.17 635.385 176.969C632.058 174.892 612.979 161.09 603.713 154.653L632.229 180.716C634.178 182.357 638.13 185.633 642.579 183.027C647.028 180.421 667.582 168.646 677.303 163.085Z" fill="#FFDF53"/>
<path d="M696.168 226.77C663.377 241.68 599.454 241.236 568.555 224.694L564.398 228.11C563.515 229.159 562.519 231.497 565.605 232.456C569.013 233.277 596.48 238.988 609.788 241.74C610.443 241.876 611.927 242.364 612.659 244.414L629.257 285.544C629.951 287.153 632.386 288.947 633.541 286.846L656.929 246.599C657.284 245.873 658.491 245.352 659.005 245.35C662.459 244.595 699.273 242.551 705.575 241.761C706.524 241.485 708.14 240.54 706.221 237.951C704.101 235.602 698.713 229.528 696.168 226.77Z" fill="#FFBF0E"/>
</g>
<path d="M211.727 329.7C211.587 329.187 213.944 328.93 218.797 328.93C224.164 328.93 226.917 329.373 227.057 330.26L230.487 359.73L237.907 329.91C238.14 329.21 239.96 328.86 243.367 328.86C246.774 328.86 248.594 329.187 248.827 329.84L256.107 359.87L260.167 330.12C260.26 329.607 261.334 329.257 263.387 329.07C265.44 328.883 267.097 328.79 268.357 328.79C273.257 328.79 275.637 329.117 275.497 329.77L267.027 376.18C266.84 376.88 265.51 377.393 263.037 377.72C260.564 378.047 258.557 378.21 257.017 378.21C251.23 378.21 248.197 377.557 247.917 376.25L243.157 357L237.977 376.18C237.79 377.02 236.157 377.627 233.077 378C231.49 378.14 229.904 378.21 228.317 378.21L223.837 378C220.757 377.673 219.124 377.09 218.937 376.25L211.727 329.7ZM304.808 376.11C301.868 377.837 298.088 378.7 293.468 378.7C288.848 378.7 284.952 377.137 281.778 374.01C278.605 370.837 277.018 366.473 277.018 360.92C277.018 355.32 278.535 350.817 281.568 347.41C284.648 344.003 288.522 342.3 293.188 342.3C297.855 342.3 301.448 343.49 303.968 345.87C306.535 348.25 307.818 351.143 307.818 354.55C307.818 362.11 303.478 365.89 294.798 365.89H289.968C289.968 367.29 290.342 368.27 291.088 368.83C291.882 369.343 293.025 369.6 294.518 369.6C297.785 369.6 300.888 368.853 303.828 367.36C303.875 367.313 304.085 367.64 304.458 368.34C305.578 370.347 306.138 372.05 306.138 373.45C306.138 374.803 305.695 375.69 304.808 376.11ZM296.058 355.88C296.058 353.92 295.102 352.94 293.188 352.94C292.302 352.94 291.532 353.22 290.878 353.78C290.272 354.293 289.968 355.063 289.968 356.09V358.26H293.748C295.288 358.26 296.058 357.467 296.058 355.88ZM325.131 377.44C325.131 377.86 322.751 378.07 317.991 378.07C314.258 378.023 312.391 377.837 312.391 377.51V329.84C312.391 329.14 314.655 328.79 319.181 328.79C323.148 328.93 325.131 329.163 325.131 329.49V377.44ZM344.203 377.44C344.203 377.86 341.823 378.07 337.063 378.07C333.33 378.023 331.463 377.837 331.463 377.51V329.84C331.463 329.14 333.727 328.79 338.253 328.79C342.22 328.93 344.203 329.163 344.203 329.49V377.44ZM381.439 329.42C381.439 328.72 383.282 328.37 386.969 328.37C388.229 328.37 389.676 328.463 391.309 328.65C392.989 328.79 393.829 329 393.829 329.28V366.17H396.279C397.446 366.17 398.216 367.22 398.589 369.32C398.682 369.927 398.729 370.767 398.729 371.84C398.729 372.867 398.402 374.127 397.749 375.62C396.816 377.673 395.322 378.7 393.269 378.7C391.729 378.7 390.352 378.397 389.139 377.79C387.972 377.183 387.179 376.553 386.759 375.9L386.129 374.99C383.562 377.463 380.342 378.7 376.469 378.7C372.596 378.7 369.282 377.09 366.529 373.87C363.776 370.65 362.399 366.17 362.399 360.43C362.399 354.643 363.846 350.187 366.739 347.06C369.632 343.887 373.249 342.3 377.589 342.3C378.849 342.3 380.132 342.44 381.439 342.72V329.42ZM379.129 353.5C376.516 353.5 375.209 355.857 375.209 360.57C375.209 362.95 375.582 364.677 376.329 365.75C377.076 366.777 377.892 367.29 378.779 367.29C379.712 367.29 380.599 366.893 381.439 366.1V354.2C380.646 353.733 379.876 353.5 379.129 353.5ZM406.319 373.87C403.426 370.65 401.979 366.193 401.979 360.5C401.979 354.807 403.426 350.35 406.319 347.13C409.259 343.91 413.203 342.3 418.149 342.3C423.096 342.3 427.016 343.91 429.909 347.13C432.803 350.35 434.249 354.807 434.249 360.5C434.249 366.193 432.803 370.65 429.909 373.87C427.016 377.09 423.096 378.7 418.149 378.7C413.203 378.7 409.259 377.09 406.319 373.87ZM418.149 353.99C415.536 353.99 414.229 356.137 414.229 360.43C414.229 364.723 415.536 366.87 418.149 366.87C420.809 366.87 422.139 364.723 422.139 360.43C422.139 356.137 420.809 353.99 418.149 353.99ZM453.828 377.58C453.828 377.907 452.148 378.07 448.788 378.07C444.121 377.93 441.788 377.673 441.788 377.3V354.62H439.968C438.755 354.62 437.961 353.593 437.588 351.54C437.495 350.933 437.448 350.327 437.448 349.72C437.448 348.273 437.728 346.827 438.288 345.38C439.128 343.327 440.435 342.3 442.208 342.3C443.981 342.3 445.568 342.72 446.968 343.56C448.368 344.4 449.301 345.24 449.768 346.08C452.708 343.56 456.208 342.3 460.268 342.3C464.328 342.3 467.268 343.397 469.088 345.59C470.908 347.783 471.818 351.377 471.818 356.37V377.37C471.818 377.93 469.811 378.21 465.798 378.21C461.831 378.21 459.848 377.93 459.848 377.37V357.14C459.848 354.807 459.031 353.64 457.398 353.64C456.931 353.64 456.278 353.85 455.438 354.27C454.598 354.643 454.061 354.923 453.828 355.11V377.58ZM504.213 376.11C501.273 377.837 497.493 378.7 492.873 378.7C488.253 378.7 484.356 377.137 481.183 374.01C478.009 370.837 476.423 366.473 476.423 360.92C476.423 355.32 477.939 350.817 480.973 347.41C484.053 344.003 487.926 342.3 492.593 342.3C497.259 342.3 500.853 343.49 503.373 345.87C505.939 348.25 507.223 351.143 507.223 354.55C507.223 362.11 502.883 365.89 494.203 365.89H489.373C489.373 367.29 489.746 368.27 490.493 368.83C491.286 369.343 492.429 369.6 493.923 369.6C497.189 369.6 500.293 368.853 503.233 367.36C503.279 367.313 503.489 367.64 503.863 368.34C504.983 370.347 505.543 372.05 505.543 373.45C505.543 374.803 505.099 375.69 504.213 376.11ZM495.463 355.88C495.463 353.92 494.506 352.94 492.593 352.94C491.706 352.94 490.936 353.22 490.283 353.78C489.676 354.293 489.373 355.063 489.373 356.09V358.26H493.153C494.693 358.26 495.463 357.467 495.463 355.88ZM523.346 363.3C523.346 363.58 521.666 363.72 518.306 363.72C514.992 363.72 513.336 363.603 513.336 363.37L511.936 328.86C511.936 328.487 514.059 328.3 518.306 328.3C522.599 328.3 524.746 328.463 524.746 328.79L523.346 363.3ZM511.796 367.5C511.796 367.173 513.942 367.01 518.236 367.01C522.576 367.01 524.746 367.15 524.746 367.43V377.51C524.746 377.977 522.576 378.21 518.236 378.21C513.942 378.21 511.796 378.07 511.796 377.79V367.5Z" fill="white"/>
</svg>
