<svg width="120" height="31" viewBox="0 0 120 31" fill="none" xmlns="http://www.w3.org/2000/svg">
<mask id="mask0_1510_26" style="mask-type:alpha" maskUnits="userSpaceOnUse" x="0" y="0" width="120" height="31">
<rect width="120" height="31" fill="#D9D9D9"/>
</mask>
<g mask="url(#mask0_1510_26)">
<rect y="2.47998" width="152" height="28.52" rx="14.26" fill="#7B7B7B"/>
<rect width="152" height="27.28" rx="13.64" fill="#ADADAD"/>
<path d="M11.78 12.182V13.582H20.768V12.182H11.78ZM11.402 14.534V15.948H21.398V14.534H11.402ZM13.558 11.02V15.192H15.098V11.02H13.558ZM12.858 15.052V18.58H14.398V15.052H12.858ZM17.184 11.02V15.178H18.752V11.02H17.184ZM9.806 7.43597V11.594C9.806 13.834 9.694 16.998 8.294 19.154C8.714 19.322 9.47 19.756 9.806 20.022C11.276 17.712 11.5 14.058 11.5 11.594V7.43597H9.806ZM10.842 7.43597V8.84997H18.948V9.84397H10.842V11.258H20.642V7.43597H10.842ZM11.416 18.258L11.654 19.798C13.11 19.574 15.07 19.294 16.89 18.986L16.82 17.544C14.846 17.838 12.788 18.118 11.416 18.258ZM16.792 15.122L15.406 15.416C16.316 17.796 17.912 19.336 20.558 19.994C20.768 19.574 21.216 18.944 21.552 18.608C19.116 18.16 17.534 16.928 16.792 15.122ZM19.634 15.766C19.074 16.228 18.108 16.858 17.408 17.222L18.486 18.02C19.2 17.684 20.138 17.166 20.894 16.62L19.634 15.766ZM31.548 9.38197C30.204 12.168 27.908 14.646 25.304 16.102C25.682 16.41 26.34 17.068 26.62 17.418C29.196 15.738 31.646 13.036 33.214 9.94197L31.548 9.38197ZM25.822 11.328C28.286 12.91 31.184 15.318 32.472 17.026L33.802 15.752C32.402 14.016 29.406 11.748 26.998 10.25L25.822 11.328ZM23.12 7.57597V19.994H24.8V9.18597H35.104V7.57597H23.12ZM24.156 17.712V19.322H35.454V17.712H24.156ZM37.554 8.10797V9.77397H48.39V8.10797H37.554ZM36.742 17.642V19.308H49.3V17.642H36.742ZM41.446 8.69597C40.998 11.944 40.172 16.102 39.472 18.706H41.376C41.978 16.2 42.804 12.056 43.364 8.69597H41.446ZM38.016 12.21V13.862H45.366V18.426H47.102V12.21H38.016ZM61.2947 18.72H54.0427V17.502L59.0127 10.236H54.1827V8.72397H61.1547V9.94197L56.1987 17.208H61.2947V18.72ZM71.8004 13.708C71.8004 14.4826 71.7024 15.1873 71.5064 15.822C71.3197 16.4473 71.0304 16.9886 70.6384 17.446C70.2557 17.9033 69.7657 18.2533 69.1684 18.496C68.5804 18.7386 67.8897 18.86 67.0964 18.86C66.2937 18.86 65.5937 18.7386 64.9964 18.496C64.4084 18.244 63.9231 17.894 63.5404 17.446C63.1577 16.9886 62.8684 16.4426 62.6724 15.808C62.4857 15.1733 62.3924 14.4686 62.3924 13.694C62.3924 12.658 62.5604 11.7573 62.8964 10.992C63.2417 10.2266 63.7597 9.63397 64.4504 9.21397C65.1504 8.78464 66.0371 8.56997 67.1104 8.56997C68.1651 8.56997 69.0377 8.78464 69.7284 9.21397C70.4191 9.63397 70.9371 10.2313 71.2824 11.006C71.6277 11.7713 71.8004 12.672 71.8004 13.708ZM64.2824 13.708C64.2824 14.464 64.3804 15.1126 64.5764 15.654C64.7817 16.1953 65.0897 16.6106 65.5004 16.9C65.9204 17.1893 66.4524 17.334 67.0964 17.334C67.7591 17.334 68.2957 17.1893 68.7064 16.9C69.1171 16.6106 69.4204 16.1953 69.6164 15.654C69.8124 15.1126 69.9104 14.464 69.9104 13.708C69.9104 12.5786 69.6911 11.692 69.2524 11.048C68.8137 10.404 68.0997 10.082 67.1104 10.082C66.4571 10.082 65.9204 10.2266 65.5004 10.516C65.0897 10.8053 64.7817 11.2206 64.5764 11.762C64.3804 12.3033 64.2824 12.952 64.2824 13.708ZM82.427 18.72H80.201L75.469 10.88H75.413C75.4223 11.0853 75.4316 11.3046 75.441 11.538C75.4596 11.762 75.4736 11.9953 75.483 12.238C75.4923 12.4713 75.5016 12.7093 75.511 12.952C75.5203 13.1946 75.5296 13.4373 75.539 13.68V18.72H73.929V8.72397H76.141L80.859 16.508H80.901C80.8916 16.3213 80.8823 16.1206 80.873 15.906C80.8636 15.682 80.8543 15.4533 80.845 15.22C80.845 14.9866 80.8403 14.7486 80.831 14.506C80.8216 14.2633 80.8123 14.03 80.803 13.806V8.72397H82.427V18.72ZM90.7145 18.72H85.0305V8.72397H90.7145V10.222H86.8225V12.77H90.4625V14.268H86.8225V17.208H90.7145V18.72ZM102.883 12.434C103.517 12.434 104.077 12.5506 104.563 12.784C105.048 13.0173 105.426 13.358 105.697 13.806C105.977 14.2446 106.117 14.786 106.117 15.43C106.117 16.1393 105.967 16.7506 105.669 17.264C105.37 17.7773 104.931 18.174 104.353 18.454C103.774 18.7246 103.065 18.86 102.225 18.86C101.702 18.86 101.212 18.8133 100.755 18.72C100.297 18.6266 99.9006 18.4913 99.5646 18.314V16.746C99.9099 16.9326 100.325 17.0866 100.811 17.208C101.296 17.3293 101.753 17.39 102.183 17.39C102.631 17.39 103.013 17.3293 103.331 17.208C103.648 17.0773 103.891 16.8813 104.059 16.62C104.227 16.3493 104.311 16.0086 104.311 15.598C104.311 15.038 104.133 14.6133 103.779 14.324C103.424 14.0346 102.873 13.89 102.127 13.89C101.865 13.89 101.581 13.9133 101.273 13.96C100.974 14.0066 100.727 14.0533 100.531 14.1L99.7746 13.68L100.153 8.72397H105.417V10.264H101.707L101.497 12.574C101.655 12.546 101.842 12.518 102.057 12.49C102.281 12.4526 102.556 12.434 102.883 12.434Z" fill="white"/>
</g>
</svg>
